<svg xmlns="http://www.w3.org/2000/svg" viewBox="140 115 750 680">
	<rect x="150" y="177" width="725" height="607" rx="60" ry="60" fill="#000000" />
	<path fill="#FEFEF6" d="M215.348 526.737C238.084 527.005 260.875 526.931 283.603 526.725C301.643 526.561 304.369 527.619 316.614 539.842C324.01 533.537 325.62 527.56 336.742 527.255C344.382 527.045 352.189 526.99 359.898 527.011L399.281 527.132C410.011 527.17 437.944 525.617 446.858 529.811C451.845 532.158 455.596 536.24 459.417 540.088C459.711 539.748 460.007 539.409 460.306 539.073C466.565 532.026 472.132 528.065 481.89 527.57C496.04 526.853 510.475 527.465 524.661 527.454C538.614 527.444 557.96 526.037 571.162 528.608C575.667 529.486 579.725 531.235 583.098 534.424C588.112 539.165 590.537 545.837 590.465 552.673C590.178 580.197 561.202 570.449 553.397 578.786C552.212 580.052 551.897 581.366 551.706 583.037C550.66 592.155 551.661 604.484 551.58 614.09C551.387 636.863 550.632 659.491 551.554 682.272C562.039 694.014 572.534 684.17 583.191 694.481C595.51 706.399 589.718 732.263 571.439 734.335C554.344 736.273 537.014 735.089 519.895 735.041C495.333 734.972 470.798 735.019 446.25 735.049L386.203 735.117C363.717 735.33 326.843 742.717 328.419 707.728C329.098 692.648 351.067 688.545 346.079 679.728C340.169 669.282 321.515 654.786 310.539 650.353L308.988 651.056C296.044 657.009 287.103 663.971 282.106 677.429C284.401 684.622 285.456 686.678 293.78 687.63C300.159 688.413 307.817 687.756 312.929 692.361C330.451 708.145 321.824 734.385 297.55 735.06C290.159 735.265 283.503 735.223 276.459 735.138L245.925 735.015C238.677 734.972 231.429 734.999 224.182 735.098C214.173 735.242 204.271 736.52 196.061 729.387C181.766 717.128 188.155 689.475 207.846 687.679C216.005 686.935 226.022 689.709 226.454 677.628C226.684 671.202 226.589 664.726 226.58 658.265L226.499 621.449C226.491 608.699 226.937 595.861 226.407 583.154C226.268 577.837 222.678 575.432 217.601 575.173C203.429 574.447 189.877 570.227 188.579 553.224C187.996 546.438 190.188 539.705 194.654 534.563C200.647 527.778 207.039 527.137 215.348 526.737Z" />
	<path d="M459.23 564.347C465.739 569.228 467.171 576.347 477.56 575.907C480.696 575.938 492.373 576.752 493.017 580.888C497.342 608.692 493.575 637.333 494.934 665.539C495.941 686.432 492.106 688.32 472.325 687.973C447.079 687.53 431.844 683.603 408.984 671.952C393.916 663.836 357.395 632.691 357.395 614.581C358.359 594.402 392.25 579.647 408.443 577.474C432.352 574.266 440.101 582.972 459.23 564.347Z" />
	<path d="M315.588 563.376C321.626 567.56 327.698 574.731 332.022 580.595C325.363 594.548 312.241 602.301 298.709 608.719C290.914 611.131 288.4 609.039 283.627 603.224C279.444 556.867 296.566 588.157 315.588 563.376Z" />
	<path fill="#FEFEF6" stroke="#000000" stroke-width="2" d="M268.5 177.75C305.281 177.402 343.359 176.928 380.008 178.457C376.857 182.989 373.83 187.607 370.93 192.303L248.89 192.518C238.458 192.506 228.027 192.425 217.596 192.275C209.796 192.193 200.735 191.951 193.064 193.058C186.857 193.954 181.231 196.897 176.712 201.185C168.129 209.33 165.136 218.564 165.091 230.275C164.949 266.905 165.034 303.607 165.064 340.241L165.353 560.754L165.388 679.186L165.332 711.952C165.211 728.123 163.027 745.303 175.471 757.69C185.714 767.886 194.911 768.957 208.913 768.981C254.363 769.058 299.808 769.015 345.255 768.995L613.341 768.903L755.232 768.984L797.516 769.048C806.998 769.072 818.324 769.374 827.622 768.492C835.218 767.833 842.349 764.554 847.795 759.217C857.685 749.476 858.727 738.923 858.824 725.703L858.526 388.834L858.55 279.356L858.573 246.079C858.576 238.705 858.7 231.662 858.126 224.286C857.435 209.561 845.345 195.432 830.489 193.328C816.406 191.334 799.323 192.28 784.734 192.279L700.25 192.162L654.114 192.123C651.798 187.817 648.419 182.732 645.779 178.521C686.326 177.262 728.152 178.042 768.848 178L801.791 177.841C811.318 177.751 821.775 177.117 831.105 178.793C857.207 183.481 872.021 203.144 872.51 228.995C873.292 270.306 873.03 311.362 873.026 352.572L873.014 564.733L873.062 681.27C873.047 690.669 873.101 700.067 873.227 709.465C873.586 730.962 875.028 751.519 858.893 768.396C848.853 778.898 837.544 783.319 823.09 783.413C807.11 783.517 791.088 783.492 775.091 783.513L680.726 783.564L409.94 783.5L266.044 783.506L224.584 783.624C214.852 783.675 204.655 784.123 194.991 782.967C184.119 781.654 173.979 776.806 166.13 769.17C155.194 758.506 150.808 745.75 150.648 730.751L150.55 611.088L150.555 383.046L150.619 274.674L150.517 244.146C150.489 237 150.261 228.197 151.18 221.2C152.517 210.334 157.446 200.225 165.183 192.479C171.334 186.297 179.024 181.87 187.459 179.657C197.975 176.9 216.363 177.852 227.949 177.887L268.5 177.75Z" />
	<path fill="#FEFEF6" d="M629.673 527.646C635.341 527.066 647.075 527.43 653.047 527.45L693.307 527.487L760.546 527.66C773.892 527.708 787.033 527.728 800.518 528.079C810.71 527.747 822.974 534.037 827.075 543.969C831.307 554.218 829.561 571.032 829.652 582.076C829.726 591.107 830.83 602.825 827.668 611.171C823.453 619.851 816.187 622.393 806.745 621.547C777.756 618.948 785.057 560.824 750.923 572.174C744.687 574.247 741.965 582.407 742.018 588.312C742.277 616.633 741.663 645.081 742.261 673.401C742.609 689.802 753.854 686.7 765.287 690.023C782.081 694.904 783.524 707.822 779.002 722.195C773.731 732.366 763.474 735.136 752.798 735.156C743.063 735.174 733.363 735.002 723.619 735.053L683.931 735.128C676.454 735.13 665.736 735.609 658.811 734.37C636.203 730.325 633.547 695.948 656.493 689.88C666.586 687.211 680.7 691.334 687.14 682.552C691.547 676.544 690.445 659.443 690.398 651.741L690.189 617.992C690.174 612.339 690.398 606.647 690.328 601.009C690.208 591.418 692.082 579.731 683.041 573.421C679.132 570.709 674.26 569.774 669.625 570.848C651.78 574.822 650.533 598.453 642.242 611.37C635.481 621.904 620.768 625.629 610.315 618.503C599.648 610.79 601.882 596.908 601.471 585.59C600.539 559.855 597.552 532.81 629.673 527.646Z" />
	<path fill="#FEFEF6" d="M618.829 240.154C621.855 243.479 619.953 478.854 619.802 505.898L567.662 506.093C564.231 479.562 557.04 452.958 552.829 426.49C549.776 407.301 545.703 388.313 541.81 369.288C540.58 385.518 541.403 404.237 541.449 420.646L541.413 506.092C528.107 506.492 514.792 506.53 501.484 506.205L501.477 492.765L501.168 272.891C505.64 272.094 513.131 269.634 517.559 268.213C529.182 264.403 540.729 260.362 552.191 256.092C555.111 271.401 558.253 286.185 560.957 301.629C567.21 337.35 572.831 373.187 580.766 408.574C581.305 392.889 580.513 373.119 580.462 356.963L580.469 249.244C593.067 246.53 606.393 242.527 618.829 240.154Z" />
	<path fill="#FEFEF6" d="M222.252 214.191C222.948 214.141 223.646 214.119 224.344 214.126C241.535 214.163 276.685 218.915 288.871 231.488C301.715 244.741 301.055 272.288 301.008 289.803L300.89 317.576C287.936 317.114 268.456 315.292 255.506 313.963L255.588 282.348C255.62 274.766 255.973 267.061 254.892 259.544C254.23 254.941 250.997 246.34 245.06 247.093C235.123 248.354 235.988 264.556 236.012 271.932C236.042 281.242 235.424 291.378 237.92 300.426C244.096 320.272 262.874 335.245 276.158 350.25C291.221 367.455 300.346 389.051 302.182 411.845C302.831 419.983 302.627 431.811 302.599 440.236C302.539 457.681 304.508 483.274 292.29 497.324C283.573 507.348 264.052 508.251 251.875 508.696C251 508.726 250.124 508.737 249.248 508.728C233.127 508.602 215.223 506.417 203.382 494.324C189.316 479.96 190.341 458.938 190.133 440.393C190.07 423.711 190.172 407.028 190.44 390.348C204.452 390.551 221.356 391.991 235.451 393.126L235.402 449.856C235.451 458.405 235.038 469.22 241.438 475.939C244.589 479.248 250.72 477.818 252.87 474.408C257.189 467.557 256.035 454.996 256.307 447.026C256.768 433.514 256.945 419.511 253.172 406.491C248.237 389.847 237.429 379.669 226.01 367.99C210.613 351.365 193.282 330.864 190.878 307.519C189.09 289.084 188.818 270.934 190.607 252.523C192.703 230.935 198.163 216.341 222.252 214.191Z" />
	<path fill="#FEFEF6" d="M714.412 228.707C715.538 228.536 718.027 228.5 719.273 228.45L740.73 409.468C744.444 441.592 747.411 473.56 752.206 505.572C736.011 505.959 719.81 506.096 703.61 505.982C702.483 500.054 701.84 489.87 701.425 483.753C700.696 471.692 699.902 459.635 699.042 447.582L677.086 447.9C676.678 452.347 676.574 456.438 676.45 460.888C674.664 474.554 674.737 491.194 673.447 505.496C659.629 506.772 639.387 506.027 625.261 505.851C630.718 474.15 633.741 436.772 637.535 404.368L658.154 233.597C676.365 232.404 696.149 230.339 714.412 228.707Z" />
	<path d="M687.23 291.389C688.956 293.198 696.149 403.118 696.883 415.44L688.442 415.411L678.492 415.397C678.396 399.105 680.933 374.723 682.088 357.687C683.387 338.542 684 309.312 687.23 291.389Z" />
	<path fill="#FEFEF6" d="M402.488 239.076C403.869 238.964 405.253 238.906 406.637 238.902C427.883 238.847 466.791 248.748 482.377 263.716C496.982 277.742 492.741 319.314 492.448 338.984L445.644 338.993C446.301 320.507 447.532 301.571 444.342 283.263C443.276 278.008 440.722 271.05 434.944 269.55C425.691 267.149 423.79 275.822 423.462 282.913C422.803 297.147 423.257 311.273 423.348 325.498L423.439 384.131C423.494 397.41 423.429 410.69 423.246 423.967C423.014 438.881 422.198 454.048 424.637 468.781C425.402 473.401 428.616 478.828 433.807 478.455C446.987 477.507 445.418 461.369 445.701 452.359C446.279 438.411 446.199 424.443 445.463 410.503L434.469 410.483C434.312 404.219 434.421 397.546 434.425 391.25L434.508 371.595L492.519 371.619L492.524 506.095L464.032 506.265C462.65 500.063 461.456 493.481 460.232 487.218C455.33 495.99 449.476 503.769 439.083 506.117C368.937 521.965 375.947 469.805 376.036 422.353L376.015 361.837C376.027 349.648 375.972 337.458 375.851 325.27C375.339 299.306 370.241 247.754 402.488 239.076Z" />
	<path fill="#FEFEF6" d="M803.259 216.689C804.661 216.391 805.681 216.254 806.797 217.103C807.858 221.11 807.611 229.085 807.731 233.534C808.072 246.076 807.644 258.707 807.754 271.244C808.139 337.326 808.124 403.409 807.709 469.491L840.99 469.584L841.082 505.407L798.772 505.495L758.505 505.473L758.505 222.108C773.584 220.608 788.233 218.584 803.259 216.689Z" />
	<path fill="#FEFEF6" d="M315.012 227.397C325.949 227.908 350.547 232.383 362.294 234.199L362.217 504.419C346.284 505.427 330.855 504.798 314.906 504.427L315.012 227.397Z" />
	<path fill="#000000" d="M508.311 143.21C522.357 141.861 540.411 145.721 552.848 150.9C575.276 159.944 595.116 175.189 609.105 194.787C613.266 201.134 615.736 206.147 618.757 212.915C612.651 214.093 605.684 215.088 599.51 216.093C596.11 207.049 591.234 198.505 585.16 190.749C564.708 165.406 541.91 156.162 511.095 153.227C502.161 152.298 486.414 155.159 478.013 158.068C447.237 168.492 430.424 186.754 416.505 215.609C411.433 215.517 402.279 213.776 397.326 212.693C400.672 200.596 407.593 188.44 415.39 178.882C431.788 159.314 453.849 145.784 478.351 139.559C486.761 137.489 494.459 136.752 508.311 143.21Z" />
	<path fill="#000000" d="M507.991 181.21C518.403 181.238 528.584 182.861 538.151 186.131C561.839 194.709 576.418 210.195 587.34 232.509L573.995 235.639C559.157 209.334 542.944 196.764 513.109 194.475C482.235 194.16 462.292 207.378 446.308 233.836C441.171 233.067 436.021 232.417 430.863 231.886C446.581 199.238 472.659 182.066 507.991 181.21Z" />
	<path fill="#000000" d="M507.161 215.92C514.87 215.473 522.644 216.464 529.897 219.009C544.891 223.97 554.886 233.255 562.067 246.511C557.449 247.637 552.615 248.967 547.987 250.402C540.348 238.916 532.755 234.603 519.815 231.198C502.587 228.763 489.648 235.228 479.512 251.517C474.969 250.098 470.463 248.297 466.034 246.314C474.84 228.182 490.727 219.976 507.161 215.92Z" />
	<path fill="#FEFEF6" stroke="#000000" stroke-width="6" d="M506.139 122.694C524.71 120.472 555.254 127.202 572.744 134.474C602.889 147.019 628.074 169.124 644.423 197.387C649.721 206.588 652.842 214.08 656.825 223.808C648.793 225.394 639.668 226.682 631.51 227.993C627.111 216.091 620.757 205.006 612.71 195.195C586.229 163.006 556.59 151.518 516.123 147.727C504.308 146.498 483.365 150.25 472.014 154.068C431.736 167.614 409.739 190.922 391.447 227.608C384.888 227.478 371.998 225.18 365.562 223.771C370.018 207.996 379.372 191.889 389.811 179.375C411.236 153.72 440.257 135.534 472.688 127.443C484.059 124.723 494.537 123.752 506.139 122.694Z" />
	<path fill="#FEFEF6" d="M510.482 163.726C523.904 163.75 537.233 165.951 549.951 170.243C581.568 181.236 600.436 201.54 614.685 230.981L595.995 235.147C576.657 201.833 555.332 185.553 516.207 182.475C475.85 182.06 450.534 198.857 430.385 232.836C423.349 231.867 416.295 231.035 409.226 230.342C430.083 188.265 463.335 166.361 510.482 163.726Z" />
	<path fill="#FEFEF6" d="M505.331 198.669C515.82 197.977 526.344 199.28 536.347 202.509C555.991 208.93 568.902 220.884 578.067 239.117C571.927 240.573 565.511 242.33 559.371 243.904C549.297 227.832 539.205 222.006 521.315 217.396C497.086 214.262 479.493 222.744 466.014 243.017C459.919 241.179 453.862 238.826 447.884 236.611C459.59 213.181 480.443 202.952 505.331 198.669Z" />
	<path fill="#FEFEF6" d="M508.367 233.136C524.889 231.382 533.99 238.428 543.5 251.034C537.585 252.922 531.694 254.88 525.826 256.909C520.09 252.054 517.876 251.227 510.62 251.237C502.103 253.369 499.748 256.395 494.805 263.309C490.402 258.716 485.611 254.514 480.89 250.245C488.331 239.819 495.708 235.369 508.367 233.136Z" />
</svg>
